<svg xmlns="http://www.w3.org/2000/svg" viewBox="0 0 220 70" width="220" height="70">
  <defs>
    <linearGradient id="skyGrad" x1="0%" y1="0%" x2="0%" y2="100%">
      <stop offset="0%" style="stop-color:#0c4a6e"/>
      <stop offset="100%" style="stop-color:#38bdf8"/>
    </linearGradient>
    <linearGradient id="seaGrad" x1="0%" y1="0%" x2="0%" y2="100%">
      <stop offset="0%" style="stop-color:#0284c7"/>
      <stop offset="100%" style="stop-color:#0ea5e9"/>
    </linearGradient>
  </defs>
  <!-- Sun -->
  <circle cx="55" cy="18" r="9" fill="#fbbf24"/>
  <g stroke="#fbbf24" stroke-width="2" stroke-linecap="round">
    <line x1="55" y1="5" x2="55" y2="2"/>
    <line x1="55" y1="31" x2="55" y2="34"/>
    <line x1="42" y1="18" x2="39" y2="18"/>
    <line x1="68" y1="18" x2="71" y2="18"/>
    <line x1="45" y1="8" x2="43" y2="6"/>
    <line x1="65" y1="28" x2="67" y2="30"/>
    <line x1="65" y1="8" x2="67" y2="6"/>
    <line x1="45" y1="28" x2="43" y2="30"/>
  </g>
  <!-- Sea waves -->
  <path d="M0 38 Q 10 34 20 38 Q 30 42 40 38 Q 50 34 60 38 Q 70 42 80 38" fill="none" stroke="url(#seaGrad)" stroke-width="2.5"/>
  <path d="M0 43 Q 10 39 20 43 Q 30 47 40 43 Q 50 39 60 43 Q 70 47 80 43" fill="none" stroke="url(#seaGrad)" stroke-width="2"/>
  <!-- Building - 3D style -->
  <rect x="8" y="12" width="24" height="28" rx="3" fill="#1e40af" stroke="#0f172a" stroke-width="1.5"/>
  <rect x="11" y="15" width="5.5" height="5.5" rx="1.5" fill="#93c5fd" opacity="0.9"/>
  <rect x="18.5" y="15" width="5.5" height="5.5" rx="1.5" fill="#93c5fd" opacity="0.9"/>
  <rect x="11" y="23" width="5.5" height="5.5" rx="1.5" fill="#93c5fd" opacity="0.9"/>
  <rect x="18.5" y="23" width="5.5" height="5.5" rx="1.5" fill="#93c5fd" opacity="0.9"/>
  <rect x="13" y="32" width="9" height="8" rx="2" fill="#f59e0b"/>
  <!-- Palm tree -->
  <line x1="78" y1="38" x2="78" y2="20" stroke="#166534" stroke-width="2.5" stroke-linecap="round"/>
  <path d="M78 20 Q 68 16 62 20 Q 72 22 78 20" fill="#22c55e"/>
  <path d="M78 20 Q 88 16 94 20 Q 84 22 78 20" fill="#22c55e"/>
  <path d="M78 20 Q 70 10 66 14 Q 74 18 78 20" fill="#16a34a"/>
  <path d="M78 20 Q 86 10 90 14 Q 82 18 78 20" fill="#16a34a"/>
  <!-- Text -->
  <text x="95" y="32" font-family="'Segoe UI', Arial, sans-serif" font-weight="800" font-size="20" fill="#0f172a">Les Roches</text>
  <text x="95" y="50" font-family="'Segoe UI', Arial, sans-serif" font-weight="700" font-size="16" fill="#0284c7">Blanches</text>
  <text x="95" y="60" font-family="'Segoe UI', Arial, sans-serif" font-weight="500" font-size="9" fill="#64748b" letter-spacing="3">HÔTEL & SPA</text>
</svg>