<svg xmlns="http://www.w3.org/2000/svg" viewBox="0 0 200 60" width="200" height="60">
  <defs>
    <linearGradient id="wave" x1="0%" y1="0%" x2="100%" y2="0%">
      <stop offset="0%" style="stop-color:#1e88e5"/>
      <stop offset="100%" style="stop-color:#42a5f5"/>
    </linearGradient>
  </defs>
  <!-- Wave SVG -->
  <path d="M10 38 Q 20 28, 30 38 Q 40 48, 50 38 Q 60 28, 70 38" stroke="url(#wave)" stroke-width="2.5" fill="none"/>
  <path d="M10 42 Q 20 34, 30 42 Q 40 50, 50 42 Q 60 34, 70 42" stroke="url(#wave)" stroke-width="1.8" fill="none"/>
  <!-- Building icon -->
  <rect x="8" y="14" width="20" height="24" rx="2" fill="#1565c0"/>
  <rect x="11" y="17" width="5" height="5" rx="1" fill="white"/>
  <rect x="20" y="17" width="5" height="5" rx="1" fill="white"/>
  <rect x="11" y="26" width="5" height="5" rx="1" fill="white"/>
  <rect x="20" y="26" width="5" height="5" rx="1" fill="white"/>
  <!-- Door -->
  <rect x="14" y="32" width="8" height="6" rx="1" fill="#ffcc02"/>
  <!-- Sun -->
  <circle cx="60" cy="16" r="6" fill="#ffcc02"/>
  <g stroke="#ffcc02" stroke-width="1.5">
    <line x1="60" y1="6" x2="60" y2="3"/>
    <line x1="60" y1="26" x2="60" y2="29"/>
    <line x1="50" y1="16" x2="47" y2="16"/>
    <line x1="70" y1="16" x2="73" y2="16"/>
  </g>
  <!-- Text -->
  <text x="88" y="30" font-family="Arial Black, sans-serif" font-weight="900" font-size="18" fill="#0d47a1">Les Roches</text>
  <text x="88" y="46" font-family="Arial, sans-serif" font-weight="bold" font-size="14" fill="#1565c0">Blanches</text>
</svg>